<svg width="140" height="41" viewBox="0 0 140 41" fill="none" xmlns="http://www.w3.org/2000/svg">
<g clip-path="url(#clip0_3233_9076)">
<g clip-path="url(#clip1_3233_9076)">
<path d="M26.3812 26.7216C32.1148 26.7216 36.7628 22.1714 36.7628 16.5585C36.7628 15.9224 36.703 15.2999 36.5888 14.6962C35.9721 14.5844 35.3362 14.5259 34.6864 14.5259C28.9528 14.5259 24.3049 19.076 24.3049 24.689C24.3049 25.3251 24.3646 25.9475 24.4788 26.5513C25.0955 26.6631 25.7315 26.7216 26.3812 26.7216Z" fill="#EF99AE"/>
<path fill-rule="evenodd" clip-rule="evenodd" d="M24.4792 26.5499C19.6542 25.6751 16 21.5339 16 16.5571C16 10.9443 20.648 6.3941 26.3816 6.3941C31.4653 6.3941 35.6957 9.97132 36.5891 14.6948C35.9724 14.5831 35.3366 14.5245 34.6868 14.5245C28.9532 14.5245 24.3053 19.0746 24.3053 24.6876C24.3053 25.3237 24.365 25.9462 24.4792 26.5499Z" fill="#D71343"/>
<path fill-rule="evenodd" clip-rule="evenodd" d="M26.3816 26.7202C32.1152 26.7202 36.7631 22.1701 36.7631 16.5572C36.7631 15.9211 36.7034 15.2986 36.5892 14.6949C41.4142 15.5696 45.0684 19.7109 45.0684 24.6877C45.0684 30.3005 40.4204 34.8507 34.6868 34.8507C29.6031 34.8507 25.3727 31.2735 24.4792 26.55C25.0959 26.6618 25.7318 26.7202 26.3816 26.7202Z" fill="#D71343"/>
<path d="M60.6265 27.2472C64.1742 27.2472 66.7309 25.2875 66.9884 22.3772H64.0156C63.7778 23.7742 62.4102 24.7249 60.6265 24.7249C58.387 24.7249 56.6627 23.2115 56.6627 20.3012C56.6627 17.3909 58.387 15.8581 60.6265 15.8581C62.3706 15.8581 63.7381 16.8089 63.9363 18.2252H67.048C66.6714 15.2955 64.1147 13.3553 60.6265 13.3553C56.9203 13.3553 53.6699 15.7223 53.6699 20.3012C53.6699 24.8802 56.8609 27.2472 60.6265 27.2472Z" fill="#D71343"/>
<path d="M72.5057 17.1575C69.7707 17.1575 68.1455 18.729 68.0266 20.6887H70.4842C70.5238 19.8738 71.1383 19.1365 72.3472 19.1365C73.477 19.1365 74.131 19.6991 74.131 20.514C74.131 20.9216 73.8733 21.232 73.3778 21.232H71.6932C69.5131 21.232 68.0464 22.3961 68.0464 24.3169C68.0464 25.9855 69.3744 27.2466 71.3166 27.2466C72.6842 27.2466 73.7941 26.6451 74.131 25.7333V27.0914H76.866V20.8051C76.866 18.5933 75.0229 17.1575 72.5057 17.1575ZM72.0103 25.287C71.2373 25.287 70.6824 24.8408 70.6824 24.2004C70.6824 23.4438 71.277 22.9394 72.1094 22.9394H74.131V23.0751C74.131 24.3169 73.358 25.287 72.0103 25.287Z" fill="#D71343"/>
<path d="M78.7173 31.0495H81.4722V26.2183C82.0073 26.8779 82.9784 27.2466 84.1082 27.2466C86.9816 27.2466 88.9242 25.2482 88.9242 22.2021C88.9242 19.1559 87.1408 17.1575 84.346 17.1575C83.0576 17.1575 82.0668 17.6231 81.4722 18.3798V17.3127H78.7173V31.0495ZM83.7712 24.9183C82.2848 24.9183 81.3135 23.8318 81.3135 22.2021C81.3135 20.5529 82.2848 19.4663 83.7712 19.4663C85.2181 19.4663 86.2089 20.5529 86.2089 22.2021C86.2089 23.8318 85.2181 24.9183 83.7712 24.9183Z" fill="#D71343"/>
<path d="M93.7747 27.2466C96.1139 27.2466 97.6591 26.0243 97.6591 24.1616C97.6591 19.7379 92.1895 22.0081 92.1895 20.0096C92.1895 19.3887 92.7243 19.0589 93.4973 19.0589C94.2504 19.0589 95.0234 19.5051 95.1426 20.3395H97.5408C97.4417 18.4186 95.8165 17.1575 93.4182 17.1575C91.3765 17.1575 89.8504 18.3798 89.8504 20.1066C89.8504 24.2199 95.2217 22.2603 95.2217 24.2587C95.2217 24.802 94.6269 25.2094 93.7747 25.2094C92.7443 25.2094 92.0504 24.6661 91.9513 23.793H89.573C89.6721 25.9078 91.3373 27.2466 93.7747 27.2466Z" fill="#D71343"/>
<path d="M108.54 17.3116H105.766V22.6666C105.766 23.9083 104.913 24.8396 103.704 24.8396C102.575 24.8396 101.782 23.986 101.782 22.8024V17.3116H99.0269V23.4039C99.0269 25.6351 100.494 27.2456 102.733 27.2456C104.101 27.2456 105.21 26.6635 105.766 25.7322V27.0903H108.54V17.3116Z" fill="#D71343"/>
<path d="M110.523 27.0931H113.277V13.0653H110.523V27.0931Z" fill="#D71343"/>
<path d="M121.936 23.7736C121.717 24.6079 120.984 25.0348 119.875 25.0348C118.486 25.0348 117.595 24.1811 117.397 22.8035H124.571C124.591 22.5901 124.611 22.299 124.611 21.9304C124.611 19.6991 123.204 17.1575 119.677 17.1575C116.287 17.1575 114.741 19.6991 114.741 22.1826C114.741 24.6468 116.485 27.2466 119.875 27.2466C122.331 27.2466 124.235 25.8885 124.631 23.7736H121.936ZM119.677 19.1365C121.004 19.1365 121.777 20.0096 121.857 21.0961H117.437C117.674 19.7379 118.428 19.1365 119.677 19.1365Z" fill="#D71343"/>
</g>
</g>
<defs>
<clipPath id="clip0_3233_9076">
<rect width="140" height="40" fill="white" transform="translate(0 0.307129)"/>
</clipPath>
<clipPath id="clip1_3233_9076">
<rect width="140" height="40" fill="white" transform="translate(0 0.307129)"/>
</clipPath>
</defs>
</svg>
