<svg width="140" height="41" viewBox="0 0 140 41" fill="none" xmlns="http://www.w3.org/2000/svg">
<g clip-path="url(#clip0_3233_9115)">
<g clip-path="url(#clip1_3233_9115)">
<path d="M17.9272 24.9447C22.7696 24.9447 26.6952 21.1814 26.6952 16.539C26.6952 11.8967 22.7696 8.13318 17.9272 8.13318H5.6521V24.9447H17.9272Z" fill="#80B021"/>
<path d="M5.6521 8.13318L26.6952 33.3506H12.6664L5.6521 24.9447V8.13318Z" fill="#80B021"/>
<path d="M19.5595 24.7994C19.0306 24.8948 18.485 24.9447 17.9272 24.9447H5.6521V8.13318L19.5595 24.7994Z" fill="#A0CE45"/>
<path d="M41.127 26.632C39.8995 26.632 38.845 26.3966 37.9634 25.9259C37.093 25.4445 36.4235 24.7705 35.9548 23.9039C35.4861 23.0266 35.2517 21.9943 35.2517 20.8068C35.2517 19.6193 35.4861 18.5923 35.9548 17.7256C36.4235 16.8591 37.093 16.1904 37.9634 15.7197C38.845 15.2383 39.8995 14.9976 41.127 14.9976C41.9194 14.9976 42.667 15.1152 43.3701 15.3506C44.0842 15.586 44.6701 15.923 45.1277 16.3616L44.4246 17.9984C43.9225 17.592 43.4092 17.2977 42.8847 17.1158C42.3601 16.9233 41.7967 16.827 41.1941 16.827C40 16.827 39.0905 17.1747 38.4656 17.8701C37.8407 18.5548 37.5282 19.5337 37.5282 20.8068C37.5282 22.0798 37.8407 23.0642 38.4656 23.7595C39.0905 24.4549 40 24.8026 41.1941 24.8026C41.7967 24.8026 42.3601 24.7116 42.8847 24.5297C43.4092 24.3372 43.9225 24.0376 44.4246 23.6311L45.1277 25.268C44.6701 25.6959 44.0842 26.033 43.3701 26.279C42.667 26.5143 41.9194 26.632 41.127 26.632Z" fill="#80B021"/>
<path d="M49.941 26.6334C49.0929 26.6334 48.3563 26.4676 47.7315 26.1359C47.1065 25.8043 46.6211 25.3336 46.2752 24.7237C45.9292 24.1032 45.7563 23.3757 45.7563 22.5413C45.7563 21.7069 45.9292 20.9847 46.2752 20.3749C46.6211 19.7651 47.1065 19.2944 47.7315 18.9627C48.3563 18.631 49.0929 18.4652 49.941 18.4652C50.7891 18.4652 51.5257 18.631 52.1505 18.9627C52.7755 19.2944 53.2609 19.7651 53.6069 20.3749C53.9528 20.9847 54.1257 21.7069 54.1257 22.5413C54.1257 23.3757 53.9528 24.1032 53.6069 24.7237C53.2609 25.3336 52.7755 25.8043 52.1505 26.1359C51.5257 26.4676 50.7891 26.6334 49.941 26.6334ZM49.941 25.1089C50.566 25.1089 51.0681 24.8949 51.4475 24.4669C51.827 24.0284 52.0166 23.3865 52.0166 22.5413C52.0166 21.6855 51.827 21.0489 51.4475 20.6316C51.0681 20.2036 50.566 19.9897 49.941 19.9897C49.3162 19.9897 48.8139 20.2036 48.4345 20.6316C48.055 21.0489 47.8654 21.6855 47.8654 22.5413C47.8654 23.3865 48.055 24.0284 48.4345 24.4669C48.8139 24.8949 49.3162 25.1089 49.941 25.1089Z" fill="#80B021"/>
<path d="M55.8855 26.4729V18.6257H57.9277V19.8293C58.1731 19.4013 58.5136 19.0697 58.9487 18.8343C59.3839 18.5883 59.8861 18.4652 60.4552 18.4652C61.6828 18.4652 62.4862 18.9788 62.8656 20.0058C63.1223 19.5243 63.4906 19.15 63.9705 18.8825C64.4503 18.6043 64.9971 18.4652 65.6108 18.4652C67.4521 18.4652 68.3726 19.5404 68.3726 21.6908V26.4729H66.2803V21.771C66.2803 21.1719 66.1743 20.7332 65.9623 20.4551C65.7615 20.177 65.4155 20.0379 64.9245 20.0379C64.3778 20.0379 63.948 20.2251 63.6356 20.5996C63.3232 20.9633 63.1669 21.4715 63.1669 22.1241V26.4729H61.0745V21.771C61.0745 21.1719 60.9685 20.7332 60.7565 20.4551C60.5557 20.177 60.2153 20.0379 59.7355 20.0379C59.1886 20.0379 58.7591 20.2251 58.4465 20.5996C58.1341 20.9633 57.9778 21.4715 57.9778 22.1241V26.4729H55.8855Z" fill="#80B021"/>
<path d="M70.5647 26.4729V18.6257H72.6068V19.8293C72.8524 19.4013 73.1927 19.0697 73.6279 18.8343C74.063 18.5883 74.5653 18.4652 75.1344 18.4652C76.3619 18.4652 77.1653 18.9788 77.5448 20.0058C77.8014 19.5243 78.1697 19.15 78.6496 18.8825C79.1294 18.6043 79.6762 18.4652 80.2899 18.4652C82.1312 18.4652 83.0519 19.5404 83.0519 21.6908V26.4729H80.9596V21.771C80.9596 21.1719 80.8535 20.7332 80.6415 20.4551C80.4406 20.177 80.0947 20.0379 79.6037 20.0379C79.0569 20.0379 78.6272 20.2251 78.3148 20.5996C78.0024 20.9633 77.8461 21.4715 77.8461 22.1241V26.4729H75.7537V21.771C75.7537 21.1719 75.6477 20.7332 75.4357 20.4551C75.2349 20.177 74.8944 20.0379 74.4146 20.0379C73.8678 20.0379 73.4382 20.2251 73.1257 20.5996C72.8132 20.9633 72.657 21.4715 72.657 22.1241V26.4729H70.5647Z" fill="#80B021"/>
<path d="M87.9053 26.6334C87.3139 26.6334 86.7838 26.5263 86.3152 26.3124C85.8576 26.0878 85.4949 25.7882 85.2271 25.4138C84.9705 25.0394 84.842 24.6167 84.842 24.146C84.842 23.5683 84.9983 23.1136 85.3107 22.782C85.6232 22.4397 86.131 22.1936 86.834 22.0438C87.5367 21.8941 88.4801 21.8191 89.6627 21.8191H90.2488V21.4822C90.2488 20.9473 90.1262 20.5622 89.8801 20.3268C89.6349 20.0914 89.2219 19.9737 88.6419 19.9737C88.1845 19.9737 87.7158 20.0432 87.2357 20.1823C86.7559 20.3107 86.2706 20.514 85.7794 20.7921L85.1769 19.4281C85.467 19.2356 85.8073 19.0697 86.198 18.9306C86.5997 18.7809 87.0181 18.6685 87.4532 18.5936C87.9001 18.5081 88.3184 18.4652 88.7088 18.4652C89.9027 18.4652 90.7897 18.7327 91.3706 19.2676C91.9506 19.7918 92.241 20.6103 92.241 21.7229V26.4729H90.2819V25.2212C90.0923 25.6598 89.7914 26.0076 89.3784 26.2643C88.9653 26.5103 88.474 26.6334 87.9053 26.6334ZM88.3401 25.2533C88.8871 25.2533 89.3393 25.0715 89.6967 24.7077C90.0645 24.3439 90.2488 23.884 90.2488 23.3276V22.9746H89.6793C88.6306 22.9746 87.9001 23.0548 87.4871 23.2153C87.0851 23.365 86.8843 23.6432 86.8843 24.0497C86.8843 24.4028 87.0126 24.6916 87.2693 24.9163C87.5262 25.1409 87.8827 25.2533 88.3401 25.2533Z" fill="#80B021"/>
<path d="M94.3643 26.4729V18.6257H96.4069V19.8453C96.686 19.396 97.0599 19.0536 97.5286 18.8183C98.0077 18.5829 98.5443 18.4652 99.1356 18.4652C101.066 18.4652 102.03 19.5404 102.03 21.6908V26.4729H99.9382V21.787C99.9382 21.1773 99.8156 20.7332 99.5703 20.4551C99.3356 20.177 98.9677 20.0379 98.4651 20.0379C97.8521 20.0379 97.3608 20.2251 96.993 20.5996C96.6356 20.9633 96.4573 21.4501 96.4573 22.0599V26.4729H94.3643Z" fill="#80B021"/>
<path d="M107.304 26.6304C106.59 26.6304 105.959 26.4646 105.411 26.1329C104.877 25.8012 104.458 25.3305 104.157 24.7208C103.856 24.1002 103.705 23.3728 103.705 22.5383C103.705 21.6931 103.856 20.9709 104.157 20.3719C104.458 19.7621 104.877 19.2914 105.411 18.9597C105.959 18.6281 106.59 18.4622 107.304 18.4622C107.884 18.4622 108.408 18.5853 108.877 18.8314C109.345 19.0774 109.697 19.4037 109.931 19.8102V15.1565H112.024V26.4699H109.982V25.1701C109.758 25.6194 109.407 25.9777 108.927 26.2453C108.447 26.502 107.906 26.6304 107.304 26.6304ZM107.89 25.1059C108.515 25.1059 109.016 24.892 109.396 24.464C109.775 24.0254 109.964 23.3835 109.964 22.5383C109.964 21.6824 109.775 21.0459 109.396 20.6287C109.016 20.2007 108.515 19.9868 107.89 19.9868C107.264 19.9868 106.762 20.2007 106.383 20.6287C106.003 21.0459 105.814 21.6824 105.814 22.5383C105.814 23.3835 106.003 24.0254 106.383 24.464C106.762 24.892 107.264 25.1059 107.89 25.1059Z" fill="#80B021"/>
<path d="M117.357 25.8286V22.5709H114.042V21.1587H117.357V17.9974H118.897V21.1587H122.21V22.5709H118.897V25.8286H117.357Z" fill="#80B021"/>
<path d="M124.43 26.4699V15.1565H129.553C130.847 15.1565 131.846 15.4561 132.549 16.0551C133.252 16.6435 133.603 17.4726 133.603 18.5425C133.603 19.3876 133.376 20.0883 132.917 20.6447C132.46 21.1903 131.802 21.5594 130.943 21.752C131.511 21.9232 131.98 22.335 132.348 22.9876L134.323 26.4699H131.963L129.922 22.8592C129.72 22.5061 129.481 22.2655 129.201 22.1371C128.933 22.0088 128.587 21.9445 128.163 21.9445H126.574V26.4699H124.43ZM126.574 20.4201H129.184C130.747 20.4201 131.528 19.8102 131.528 18.5906C131.528 17.3817 130.747 16.7773 129.184 16.7773H126.574V20.4201Z" fill="#80B021"/>
</g>
</g>
<defs>
<clipPath id="clip0_3233_9115">
<rect width="140" height="40" fill="white" transform="translate(0 0.307129)"/>
</clipPath>
<clipPath id="clip1_3233_9115">
<rect width="140" height="40" fill="white" transform="translate(0 0.307129)"/>
</clipPath>
</defs>
</svg>
