<svg width="140" height="41" viewBox="0 0 140 41" fill="none" xmlns="http://www.w3.org/2000/svg">
<g clip-path="url(#clip0_3233_9061)">
<g clip-path="url(#clip1_3233_9061)">
<path d="M28.9335 20.6226C26.6462 23.1909 23.3221 24.8074 19.6225 24.8074C15.9227 24.8074 12.5986 23.1909 10.3113 20.6226C12.5986 18.0542 15.9227 16.4378 19.6225 16.4378C23.3221 16.4378 26.6462 18.0542 28.9335 20.6226Z" fill="white"/>
<path fill-rule="evenodd" clip-rule="evenodd" d="M7.13037 28.9922C7.13037 22.0586 12.7232 16.4378 19.6224 16.4378C15.9227 16.4378 12.5986 18.0542 10.3112 20.6226C12.5986 23.1909 15.9227 24.8074 19.6224 24.8074C23.3222 24.8074 26.6462 23.1909 28.9336 20.6226C30.9116 22.8437 32.1145 25.7768 32.1145 28.9922V33.7348C32.1145 34.3512 31.6172 34.8508 31.004 34.8508H8.24077C7.62752 34.8508 7.13037 34.3512 7.13037 33.7348V28.9922Z" fill="#7CD4FD"/>
<path fill-rule="evenodd" clip-rule="evenodd" d="M14.9368 23.8942C13.1531 23.1683 11.5742 22.0404 10.3112 20.6224C12.5986 18.0539 15.9227 16.4376 19.6224 16.4376C23.3222 16.4376 26.6462 18.0539 28.9336 20.6224C30.9116 18.4013 32.1145 15.4682 32.1145 12.2528V7.51004C32.1145 6.89373 31.6172 6.3941 31.004 6.3941H8.24077C7.62752 6.3941 7.13037 6.89372 7.13037 7.51004V12.2528C7.13037 17.5211 10.3593 22.0314 14.9368 23.8942Z" fill="#4C89B9"/>
<path d="M51.6265 14.4507V27.0905H49.1039V21.7122H43.7162V27.0905H41.1936V14.4507H43.7162V19.6478H49.1039V14.4507H51.6265Z" fill="#4C89B9"/>
<path d="M58.5422 27.2537C57.5813 27.2537 56.7163 27.0424 55.9475 26.6199C55.1787 26.1853 54.5721 25.5757 54.1276 24.7909C53.6952 24.0063 53.479 23.1008 53.479 22.0746C53.479 21.0484 53.7012 20.143 54.1456 19.3583C54.6021 18.5737 55.2207 17.97 56.0016 17.5475C56.7825 17.1129 57.6533 16.8956 58.6143 16.8956C59.5754 16.8956 60.4463 17.1129 61.227 17.5475C62.0079 17.97 62.6205 18.5737 63.0649 19.3583C63.5214 20.143 63.7497 21.0484 63.7497 22.0746C63.7497 23.1008 63.5154 24.0063 63.0469 24.7909C62.5904 25.5757 61.9658 26.1853 61.173 26.6199C60.3921 27.0424 59.5153 27.2537 58.5422 27.2537ZM58.5422 25.0444C58.9987 25.0444 59.4252 24.9358 59.8216 24.7185C60.23 24.4891 60.5543 24.151 60.7947 23.7044C61.0348 23.2577 61.155 22.7144 61.155 22.0746C61.155 21.1209 60.9027 20.3904 60.3982 19.8835C59.9057 19.3644 59.299 19.1047 58.5782 19.1047C57.8575 19.1047 57.2509 19.3644 56.7584 19.8835C56.2779 20.3904 56.0377 21.1209 56.0377 22.0746C56.0377 23.0284 56.2719 23.7647 56.7403 24.2839C57.2209 24.7909 57.8214 25.0444 58.5422 25.0444Z" fill="#4C89B9"/>
<path d="M75.0239 17.062V27.0941H72.4833V25.8265C72.159 26.2611 71.7325 26.6052 71.2039 26.8588C70.6874 27.1003 70.1229 27.221 69.5102 27.221C68.7294 27.221 68.0387 27.058 67.438 26.732C66.8374 26.394 66.3629 25.9051 66.0145 25.2652C65.6782 24.6133 65.51 23.8407 65.51 22.9473V17.062H68.0326V22.5851C68.0326 23.3819 68.2309 23.9976 68.6273 24.4322C69.0237 24.8547 69.5643 25.066 70.249 25.066C70.9457 25.066 71.4924 24.8547 71.8886 24.4322C72.285 23.9976 72.4833 23.3819 72.4833 22.5851V17.062H75.0239Z" fill="#4C89B9"/>
<path d="M80.0356 18.6172C80.3599 18.0862 80.7804 17.6696 81.2969 17.3677C81.8255 17.066 82.4261 16.915 83.0988 16.915V19.577H82.4321C81.6393 19.577 81.0387 19.7642 80.6302 20.1383C80.2338 20.5126 80.0356 21.1645 80.0356 22.0941V27.0921H77.5129V17.06H80.0356V18.6172Z" fill="#4C89B9"/>
<path d="M88.7078 16.8956C89.453 16.8956 90.1069 17.0464 90.6721 17.3482C91.2365 17.6379 91.6808 18.0182 92.0052 18.489V17.0585H94.546V27.1631C94.546 28.0927 94.36 28.9197 93.9878 29.644C93.6147 30.3804 93.0565 30.9599 92.3121 31.3824C91.5669 31.817 90.666 32.0344 89.6087 32.0344C88.1913 32.0344 87.026 31.7024 86.1133 31.0384C85.2123 30.3744 84.7018 29.469 84.5816 28.3221H87.086C87.2182 28.7809 87.5008 29.143 87.933 29.4086C88.3773 29.6863 88.9121 29.8251 89.5365 29.8251C90.2695 29.8251 90.8643 29.6018 91.3208 29.155C91.7773 28.7204 92.0052 28.0565 92.0052 27.1631V25.6057C91.6808 26.0766 91.2304 26.469 90.6539 26.7829C90.0895 27.0968 89.4408 27.2537 88.7078 27.2537C87.8669 27.2537 87.0982 27.0364 86.4015 26.6017C85.7048 26.1671 85.1522 25.5575 84.7438 24.7728C84.3473 23.976 84.1492 23.0645 84.1492 22.0384C84.1492 21.0244 84.3473 20.1249 84.7438 19.3402C85.1522 18.5555 85.6987 17.9518 86.3835 17.5293C87.08 17.1068 87.8547 16.8956 88.7078 16.8956ZM92.0052 22.0746C92.0052 21.459 91.8852 20.9337 91.6452 20.4991C91.4043 20.0524 91.0808 19.7144 90.6721 19.485C90.2634 19.2436 89.8252 19.1229 89.3565 19.1229C88.8878 19.1229 88.4556 19.2376 88.0591 19.467C87.6626 19.6963 87.3382 20.0344 87.086 20.481C86.846 20.9157 86.7259 21.4347 86.7259 22.0384C86.7259 22.642 86.846 23.1731 87.086 23.632C87.3382 24.0786 87.6626 24.4227 88.0591 24.6642C88.4678 24.9056 88.9 25.0263 89.3565 25.0263C89.8252 25.0263 90.2634 24.9116 90.6721 24.6823C91.0808 24.4409 91.4043 24.1027 91.6452 23.6681C91.8852 23.2215 92.0052 22.6903 92.0052 22.0746Z" fill="#4C89B9"/>
<path d="M99.5321 13.6916V27.0919H97.0095V13.6916H99.5321Z" fill="#4C89B9"/>
<path d="M101.376 22.0384C101.376 21.0244 101.575 20.1249 101.971 19.3402C102.379 18.5555 102.925 17.9518 103.611 17.5293C104.307 17.1068 105.082 16.8956 105.935 16.8956C106.68 16.8956 107.329 17.0464 107.881 17.3483C108.445 17.6501 108.896 18.0304 109.232 18.489V17.0585H111.772V27.0907H109.232V25.6238C108.908 26.0947 108.457 26.487 107.881 26.801C107.317 27.1028 106.662 27.2537 105.917 27.2537C105.076 27.2537 104.307 27.0364 103.611 26.6017C102.925 26.1671 102.379 25.5575 101.971 24.7728C101.575 23.976 101.376 23.0645 101.376 22.0384ZM109.232 22.0746C109.232 21.459 109.112 20.9337 108.872 20.4991C108.632 20.0524 108.308 19.7144 107.898 19.485C107.491 19.2436 107.051 19.1229 106.584 19.1229C106.116 19.1229 105.682 19.2376 105.286 19.467C104.891 19.6963 104.565 20.0344 104.314 20.481C104.073 20.9157 103.953 21.4347 103.953 22.0384C103.953 22.642 104.073 23.1731 104.314 23.632C104.565 24.0786 104.891 24.4227 105.286 24.6642C105.694 24.9056 106.128 25.0263 106.584 25.0263C107.051 25.0263 107.491 24.9116 107.898 24.6823C108.308 24.4409 108.632 24.1027 108.872 23.6681C109.112 23.2215 109.232 22.6903 109.232 22.0746Z" fill="#4C89B9"/>
<path d="M118.057 27.2537C117.24 27.2537 116.507 27.1089 115.859 26.819C115.21 26.5173 114.693 26.1128 114.309 25.6057C113.937 25.0988 113.732 24.5373 113.697 23.9217H116.237C116.284 24.308 116.471 24.6279 116.795 24.8815C117.131 25.135 117.546 25.2617 118.039 25.2617C118.519 25.2617 118.891 25.1651 119.156 24.9719C119.432 24.7789 119.57 24.5313 119.57 24.2296C119.57 23.9036 119.402 23.6621 119.066 23.5051C118.742 23.3362 118.219 23.155 117.498 22.9619C116.753 22.7808 116.141 22.5937 115.66 22.4005C115.192 22.2074 114.783 21.9116 114.436 21.5132C114.099 21.1148 113.93 20.5777 113.93 19.9016C113.93 19.3463 114.087 18.8392 114.399 18.3804C114.723 17.9217 115.18 17.5595 115.769 17.2939C116.37 17.0283 117.072 16.8956 117.877 16.8956C119.066 16.8956 120.015 17.1973 120.723 17.8009C121.432 18.3924 121.823 19.1953 121.895 20.2094H119.48C119.444 19.811 119.277 19.4971 118.976 19.2677C118.688 19.0263 118.297 18.9056 117.804 18.9056C117.348 18.9056 116.994 18.9901 116.741 19.159C116.501 19.3282 116.381 19.5636 116.381 19.8653C116.381 20.2034 116.55 20.4629 116.885 20.644C117.222 20.813 117.744 20.9881 118.454 21.1691C119.174 21.3503 119.768 21.5374 120.237 21.7305C120.705 21.9237 121.108 22.2255 121.444 22.6359C121.793 23.0344 121.972 23.5656 121.984 24.2296C121.984 24.809 121.823 25.3281 121.498 25.7869C121.186 26.2457 120.73 26.6078 120.129 26.8734C119.54 27.1269 118.85 27.2537 118.057 27.2537Z" fill="#4C89B9"/>
<path d="M127.876 27.2537C127.059 27.2537 126.326 27.1089 125.677 26.819C125.029 26.5173 124.512 26.1128 124.128 25.6057C123.755 25.0988 123.551 24.5373 123.516 23.9217H126.056C126.103 24.308 126.29 24.6279 126.615 24.8815C126.95 25.135 127.365 25.2617 127.858 25.2617C128.338 25.2617 128.71 25.1651 128.976 24.9719C129.251 24.7789 129.39 24.5313 129.39 24.2296C129.39 23.9036 129.221 23.6621 128.885 23.5051C128.561 23.3362 128.038 23.155 127.316 22.9619C126.572 22.7808 125.959 22.5937 125.48 22.4005C125.011 22.2074 124.602 21.9116 124.255 21.5132C123.918 21.1148 123.75 20.5777 123.75 19.9016C123.75 19.3463 123.906 18.8392 124.218 18.3804C124.543 17.9217 124.999 17.5595 125.588 17.2939C126.188 17.0283 126.891 16.8956 127.696 16.8956C128.885 16.8956 129.834 17.1973 130.543 17.8009C131.251 18.3924 131.642 19.1953 131.713 20.2094H129.299C129.263 19.811 129.096 19.4971 128.795 19.2677C128.507 19.0263 128.116 18.9056 127.623 18.9056C127.167 18.9056 126.813 18.9901 126.56 19.159C126.32 19.3282 126.2 19.5636 126.2 19.8653C126.2 20.2034 126.369 20.4629 126.704 20.644C127.041 20.813 127.563 20.9881 128.272 21.1691C128.993 21.3503 129.587 21.5374 130.056 21.7305C130.524 21.9237 130.927 22.2255 131.263 22.6359C131.612 23.0344 131.791 23.5656 131.803 24.2296C131.803 24.809 131.642 25.3281 131.317 25.7869C131.005 26.2457 130.549 26.6078 129.948 26.8734C129.359 27.1269 128.669 27.2537 127.876 27.2537Z" fill="#4C89B9"/>
</g>
</g>
<defs>
<clipPath id="clip0_3233_9061">
<rect width="140" height="40" fill="white" transform="translate(0 0.307129)"/>
</clipPath>
<clipPath id="clip1_3233_9061">
<rect width="140" height="40" fill="white" transform="translate(0 0.307129)"/>
</clipPath>
</defs>
</svg>
