<svg width="140" height="41" viewBox="0 0 140 41" fill="none" xmlns="http://www.w3.org/2000/svg">
<g clip-path="url(#clip0_3233_9089)">
<g clip-path="url(#clip1_3233_9089)">
<path fill-rule="evenodd" clip-rule="evenodd" d="M26.319 6.44823C25.9709 6.37606 25.6118 6.37606 25.2637 6.44823C24.8613 6.53165 24.5017 6.73471 24.2157 6.89616L24.1377 6.94004L14.4473 12.367C14.4205 12.382 14.3929 12.3973 14.3645 12.4131C14.0618 12.5811 13.6813 12.7925 13.389 13.1121C13.1364 13.3885 12.9452 13.7161 12.8283 14.073C12.6929 14.4858 12.6945 14.9237 12.6958 15.2721C12.6959 15.3046 12.696 15.3364 12.696 15.3672V26.0825C12.696 26.1134 12.6959 26.1451 12.6958 26.1778C12.6945 26.526 12.6929 26.964 12.8283 27.3768C12.9452 27.7338 13.1364 28.0612 13.389 28.3377C13.6813 28.6573 14.0619 28.8687 14.3645 29.0368C14.3929 29.0525 14.4205 29.0678 14.4473 29.0828L24.1377 34.5098L24.2157 34.5536C24.5017 34.7151 24.8613 34.9181 25.2637 35.0016C25.6118 35.0737 25.9709 35.0737 26.319 35.0016C26.7213 34.9181 27.0809 34.7151 27.367 34.5536L27.4448 34.5098L37.1354 29.0828C37.1472 29.0762 37.1592 29.0694 37.1714 29.0626C37.1867 29.0541 37.2023 29.0455 37.218 29.0368C37.5207 28.8687 37.9013 28.6573 38.1936 28.3377C38.4463 28.0612 38.6375 27.7338 38.7544 27.3768C38.8897 26.964 38.8882 26.526 38.8869 26.1778C38.8868 26.1451 38.8867 26.1134 38.8867 26.0825V15.3672C38.8867 15.3364 38.8868 15.3047 38.8869 15.2721C38.8882 14.9237 38.8897 14.4858 38.7544 14.073C38.6375 13.7161 38.4463 13.3885 38.1936 13.1121C37.9013 12.7925 37.5207 12.5811 37.218 12.4131L37.2169 12.4125C37.1891 12.3969 37.1618 12.3818 37.1354 12.367L27.4448 6.94004L27.367 6.89616C27.0809 6.73471 26.7213 6.53165 26.319 6.44823ZM25.4097 9.24793C25.6083 9.1368 25.7095 9.08063 25.785 9.04393L25.7913 9.04089L25.7976 9.04393C25.8731 9.08063 25.9744 9.1368 26.173 9.24793L34.8806 14.1245L25.7913 19.2147L16.7021 14.1245L25.4097 9.24793ZM15.3151 16.368L24.4818 21.5016V31.6821L15.7191 26.7749C15.5097 26.6576 15.4028 26.5971 15.3277 26.5488L15.3214 26.5448L15.3209 26.5372C15.3156 26.4477 15.3151 26.3241 15.3151 26.0825V16.368Z" fill="#015694"/>
<path d="M50.8051 25.1364H54.9738V27.6128H47.6228V14.4435H50.8051V25.1364Z" fill="#015694"/>
<path d="M57.9061 16.0585C57.3477 16.0585 56.8887 15.896 56.5289 15.5709C56.1816 15.2331 56.0078 14.8204 56.0078 14.3327C56.0078 13.8324 56.1816 13.4198 56.5289 13.0946C56.8887 12.7569 57.3477 12.588 57.9061 12.588C58.452 12.588 58.8986 12.7569 59.246 13.0946C59.6058 13.4198 59.7856 13.8324 59.7856 14.3327C59.7856 14.8204 59.6058 15.2331 59.246 15.5709C58.8986 15.896 58.452 16.0585 57.9061 16.0585ZM59.4879 17.1467V27.6145H56.3056V17.1467H59.4879Z" fill="#015694"/>
<path d="M65.5531 16.9953C66.2851 16.9953 66.9241 17.1454 67.47 17.4456C68.0282 17.7457 68.4562 18.1396 68.7541 18.6273V17.1454H71.9362V27.5945C71.9362 28.5575 71.744 29.4267 71.3594 30.2021C70.9872 30.99 70.4102 31.6153 69.6287 32.0781C68.8594 32.5408 67.898 32.7722 66.7442 32.7722C65.2057 32.7722 63.9588 32.4032 63.0035 31.6653C62.0483 30.9399 61.5024 29.952 61.3659 28.7013H64.5109C64.6102 29.1016 64.846 29.4142 65.2181 29.6393C65.5903 29.877 66.0494 29.9957 66.5953 29.9957C67.2528 29.9957 67.774 29.8019 68.1585 29.4142C68.5555 29.039 68.7541 28.4323 68.7541 27.5945V26.1124C68.4439 26.6003 68.0159 27.0004 67.47 27.313C66.9241 27.6132 66.2851 27.7633 65.5531 27.7633C64.697 27.7633 63.9216 27.5444 63.2268 27.1067C62.5321 26.6564 61.9801 26.025 61.5706 25.212C61.1736 24.3866 60.9751 23.4361 60.9751 22.3605C60.9751 21.285 61.1736 20.3408 61.5706 19.5278C61.9801 18.715 62.5321 18.0896 63.2268 17.6518C63.9216 17.2142 64.697 16.9953 65.5531 16.9953ZM68.7541 22.3793C68.7541 21.5789 68.5308 20.9473 68.0841 20.4845C67.6498 20.0219 67.1163 19.7904 66.4835 19.7904C65.8508 19.7904 65.3112 20.0219 64.8646 20.4845C64.4303 20.9348 64.2132 21.5601 64.2132 22.3605C64.2132 23.161 64.4303 23.7988 64.8646 24.2741C65.3112 24.7368 65.8508 24.9682 66.4835 24.9682C67.1163 24.9682 67.6498 24.7368 68.0841 24.2741C68.5308 23.8113 68.7541 23.1796 68.7541 22.3793Z" fill="#015694"/>
<path d="M80.4357 17.034C81.6267 17.034 82.5821 17.4343 83.3016 18.2346C84.0212 19.0226 84.381 20.1106 84.381 21.4989V27.6144H81.2174V21.9303C81.2174 21.2299 81.0374 20.6859 80.6776 20.2983C80.3178 19.9105 79.834 19.7167 79.2261 19.7167C78.6181 19.7167 78.1343 19.9105 77.7745 20.2983C77.4147 20.6859 77.2348 21.2299 77.2348 21.9303V27.6144H74.0525V13.7324H77.2348V18.5536C77.5574 18.0909 77.9978 17.7219 78.5561 17.4468C79.1144 17.1717 79.741 17.034 80.4357 17.034Z" fill="#015694"/>
<path d="M92.1939 24.8941V27.6143H90.5747C89.4208 27.6143 88.5208 27.3329 87.8756 26.7701C87.2313 26.1948 86.9083 25.2631 86.9083 23.975V19.8103H85.6428V17.1465H86.9083V14.5952H90.0904V17.1465H92.1747V19.8103H90.0904V24.0125C90.0904 24.3252 90.1652 24.5502 90.3139 24.6878C90.4626 24.8254 90.7113 24.8941 91.0582 24.8941H92.1939Z" fill="#015694"/>
<path d="M96.9626 18.6286C97.26 18.1409 97.6879 17.747 98.247 17.4468C98.8044 17.1466 99.4435 16.9965 100.164 16.9965C101.019 16.9965 101.795 17.2154 102.49 17.6531C103.184 18.0909 103.73 18.7162 104.127 19.5291C104.537 20.342 104.742 21.2862 104.742 22.3618C104.742 23.4373 104.537 24.3878 104.127 25.2132C103.73 26.0262 103.184 26.6578 102.49 27.1079C101.795 27.5458 101.019 27.7645 100.164 27.7645C99.4313 27.7645 98.7922 27.6208 98.247 27.3331C97.7009 27.0329 97.2722 26.639 96.9626 26.1513V27.6144H93.78V13.7324H96.9626V18.6286ZM101.504 22.3618C101.504 21.5614 101.279 20.936 100.833 20.4858C100.399 20.0231 99.8592 19.7918 99.2139 19.7918C98.5818 19.7918 98.0418 20.0231 97.5948 20.4858C97.1609 20.9486 96.9435 21.5801 96.9435 22.3805C96.9435 23.1809 97.1609 23.8125 97.5948 24.2753C98.0418 24.738 98.5818 24.9694 99.2139 24.9694C99.847 24.9694 100.387 24.738 100.833 24.2753C101.279 23.8001 101.504 23.1622 101.504 22.3618Z" fill="#015694"/>
<path d="M110.951 27.7633C109.935 27.7633 109.017 27.5444 108.198 27.1067C107.391 26.669 106.752 26.0436 106.281 25.2307C105.822 24.4178 105.592 23.4674 105.592 22.3792C105.592 21.3037 105.828 20.3595 106.299 19.5466C106.771 18.7212 107.417 18.0896 108.235 17.6518C109.054 17.2142 109.971 16.9953 110.99 16.9953C112.006 16.9953 112.924 17.2142 113.743 17.6518C114.562 18.0896 115.207 18.7212 115.678 19.5466C116.151 20.3595 116.385 21.3037 116.385 22.3792C116.385 23.4548 116.144 24.4053 115.66 25.2307C115.188 26.0436 114.537 26.669 113.706 27.1067C112.887 27.5444 111.97 27.7633 110.951 27.7633ZM110.951 24.9869C111.56 24.9869 112.074 24.7617 112.497 24.3116C112.931 23.8613 113.147 23.2172 113.147 22.3792C113.147 21.5414 112.938 20.8973 112.515 20.4471C112.105 19.9969 111.597 19.7717 110.99 19.7717C110.369 19.7717 109.853 19.9969 109.444 20.4471C109.035 20.8848 108.831 21.5288 108.831 22.3792C108.831 23.2172 109.029 23.8613 109.426 24.3116C109.836 24.7617 110.344 24.9869 110.951 24.9869Z" fill="#015694"/>
<path d="M124.029 27.6139L122.037 24.7061L120.363 27.6139H116.919L120.344 22.2674L116.826 17.146H120.4L122.391 20.035L124.066 17.146H127.51L124.029 22.4175L127.603 27.6139H124.029Z" fill="#015694"/>
</g>
</g>
<defs>
<clipPath id="clip0_3233_9089">
<rect width="140" height="40" fill="white" transform="translate(0 0.307129)"/>
</clipPath>
<clipPath id="clip1_3233_9089">
<rect width="140" height="40" fill="white" transform="translate(0 0.307129)"/>
</clipPath>
</defs>
</svg>
