<svg width="140" height="41" viewBox="0 0 140 41" fill="none" xmlns="http://www.w3.org/2000/svg">
<g clip-path="url(#clip0_3233_9047)">
<g clip-path="url(#clip1_3233_9047)">
<path d="M20.8948 17.7676C24.8028 15.9717 27.8615 12.9243 29.6173 9.11497C28.4845 7.97223 27.0118 7.15596 25.426 6.6662L24.5764 6.3941C24.5197 6.50294 24.463 6.6662 24.463 6.77504C23.1037 10.4755 20.3284 13.4685 16.5902 15.1554C13.9848 16.3526 12.0591 18.5293 11.1528 21.1414L10.8696 21.9578C10.9828 22.0121 11.1528 22.0665 11.2661 22.0665C12.3422 22.4475 13.4183 22.9371 14.4379 23.5358C15.8539 21.0871 18.1195 19.0191 20.8948 17.7676Z" fill="#1A5B2A"/>
<path d="M37.3202 17.988C35.2246 21.0354 32.336 23.4841 28.7677 25.1168C25.8791 26.4228 23.6702 28.8716 22.6506 31.8102L22.3674 32.7353C23.4436 33.6603 24.7463 34.3678 26.1623 34.8032L27.0119 35.0753C27.0685 34.9664 27.1252 34.8032 27.1252 34.6943C28.4846 30.994 31.2599 28.0009 34.998 26.314C37.6034 25.1168 39.5858 22.94 40.4353 20.328L40.7186 19.5117C39.5292 19.1851 38.3963 18.6409 37.3202 17.988Z" fill="#1A5B2A"/>
<path d="M20.1018 29.9024C21.5177 26.6372 24.1231 23.9707 27.4648 22.447C30.5233 21.0321 33.0722 18.8554 34.828 16.1889C33.5253 14.9917 32.4491 13.6312 31.6562 11.9987C29.5605 15.6992 26.2755 18.6922 22.254 20.5424C19.9318 21.5763 18.0627 23.3721 16.9299 25.5489C18.176 26.6917 19.1955 28.1065 19.9885 29.6846C19.9885 29.6846 20.0451 29.7934 20.1018 29.9024Z" fill="#1A5B2A"/>
<path d="M47.4683 27.2525H57.0131V24.7105H50.5414V13.5651H47.4683V27.2525Z" fill="#1A5B2A"/>
<path d="M66.9855 17.3944H64.1363V22.7911C64.1363 24.0426 63.2612 24.9811 62.0198 24.9811C60.8598 24.9811 60.0457 24.1208 60.0457 22.9281V17.3944H57.2168V23.5341C57.2168 25.7828 58.7228 27.4057 61.0225 27.4057C62.4268 27.4057 63.5664 26.8192 64.1363 25.8806V27.2494H66.9855V17.3944Z" fill="#1A5B2A"/>
<path d="M68.0437 27.2525H70.8929V21.6603C70.8929 20.3892 71.646 19.5485 72.8263 19.5485C73.9254 19.5485 74.6173 20.3892 74.6173 21.6603V27.2525H77.4665V21.6603C77.4665 20.3892 78.2195 19.5485 79.3999 19.5485C80.4989 19.5485 81.2112 20.3892 81.2112 21.6603V27.2525H84.0401V20.7999C84.0401 18.825 82.5951 17.2411 80.3564 17.2411C78.708 17.2411 77.4258 18.0819 76.9374 19.0401C76.4489 17.8669 75.411 17.2411 73.8032 17.2411C72.4194 17.2411 71.4424 17.8865 70.8929 18.7859V17.3976H68.0437V27.2525Z" fill="#1A5B2A"/>
<path d="M85.011 13.1124V15.9868H88.0227V13.1124H85.011ZM85.0924 27.2496H87.9419V17.3946H85.0924V27.2496Z" fill="#1A5B2A"/>
<path d="M89.0034 27.2525H91.853V21.8558C91.853 20.5848 92.7278 19.6658 93.9695 19.6658C95.1495 19.6658 95.9434 20.5261 95.9434 21.7189V27.2525H98.7921V21.1127C98.7921 18.8445 97.286 17.2411 94.966 17.2411C93.5626 17.2411 92.4225 17.8082 91.853 18.7664V17.3976H89.0034V27.2525Z" fill="#1A5B2A"/>
<path d="M104.735 27.409C107.89 27.409 110.149 25.2581 110.149 22.3251C110.149 19.392 107.89 17.2411 104.735 17.2411C101.581 17.2411 99.3218 19.392 99.3218 22.3251C99.3218 25.2581 101.581 27.409 104.735 27.409ZM104.735 25.0625C103.209 25.0625 102.171 23.948 102.171 22.3251C102.171 20.6825 103.209 19.568 104.735 19.568C106.262 19.568 107.3 20.6825 107.3 22.3251C107.3 23.948 106.262 25.0625 104.735 25.0625Z" fill="#1A5B2A"/>
<path d="M120.468 17.3944H117.618V22.7911C117.618 24.0426 116.744 24.9811 115.503 24.9811C114.342 24.9811 113.528 24.1208 113.528 22.9281V17.3944H110.699V23.5341C110.699 25.7828 112.205 27.4057 114.504 27.4057C115.91 27.4057 117.049 26.8192 117.618 25.8806V27.2494H120.468V17.3944Z" fill="#1A5B2A"/>
<path d="M125.271 27.409C127.672 27.409 129.26 26.1771 129.26 24.2999C129.26 19.8418 123.643 22.1295 123.643 20.1155C123.643 19.4898 124.193 19.1574 124.986 19.1574C125.759 19.1574 126.553 19.6071 126.675 20.4479H129.138C129.037 18.5121 127.367 17.2411 124.905 17.2411C122.808 17.2411 121.242 18.4731 121.242 20.2133C121.242 24.3586 126.757 22.3838 126.757 24.3978C126.757 24.9452 126.146 25.3558 125.271 25.3558C124.213 25.3558 123.5 24.8084 123.398 23.9285H120.957C121.058 26.0598 122.768 27.409 125.271 27.409Z" fill="#1A5B2A"/>
</g>
</g>
<defs>
<clipPath id="clip0_3233_9047">
<rect width="140" height="40" fill="white" transform="translate(0 0.307129)"/>
</clipPath>
<clipPath id="clip1_3233_9047">
<rect width="140" height="40" fill="white" transform="translate(0 0.307129)"/>
</clipPath>
</defs>
</svg>
