<svg width="140" height="41" viewBox="0 0 140 41" fill="none" xmlns="http://www.w3.org/2000/svg">
<g clip-path="url(#clip0_3233_9102)">
<path d="M39.3712 20.6023C39.3712 28.4442 32.8598 34.8107 24.8161 34.8107C16.7723 34.8107 10.261 28.4442 10.261 20.6023C10.261 12.7603 16.7723 6.39404 24.8161 6.39404C32.8598 6.39404 39.3712 12.7603 39.3712 20.6023Z" stroke="#592814" stroke-width="2.6087"/>
<path d="M30.449 26.1021C27.4666 29.0144 24.1034 30.8993 21.1377 31.6439C18.1331 32.3984 15.84 31.9331 14.5259 30.6499C13.2118 29.3666 12.7352 27.1273 13.5078 24.1932C14.2705 21.2971 16.2006 18.0127 19.183 15.1004C22.1652 12.1881 25.5285 10.3031 28.4942 9.55844C31.4988 8.80397 33.7919 9.26931 35.106 10.5526C36.42 11.8358 36.8966 14.0751 36.124 17.0092C35.3613 19.9053 33.4313 23.1897 30.449 26.1021Z" stroke="#592814" stroke-width="2.6087"/>
<path d="M30.4486 15.1004C33.431 18.0127 35.3611 21.2971 36.1237 24.1932C36.8963 27.1272 36.4198 29.3666 35.1057 30.6499C33.7916 31.9331 31.4985 32.3985 28.494 31.6439C25.5282 30.8993 22.165 29.0144 19.1826 26.102C16.2004 23.1898 14.2702 19.9053 13.5076 17.0093C12.735 14.0751 13.2115 11.8358 14.5255 10.5526C15.8396 9.26932 18.1327 8.80397 21.1373 9.55845C24.103 10.3031 27.4664 12.188 30.4486 15.1004Z" stroke="#592814" stroke-width="2.6087"/>
<path d="M54.7092 27.7414C58.1559 27.7414 60.4831 25.9835 60.4831 23.175C60.4831 17.2365 52.404 19.7663 52.404 16.6363C52.404 15.7572 53.2164 15.157 54.5117 15.157C55.9825 15.157 56.9045 15.9288 57.0144 17.1079H60.1538C60.0659 14.2565 57.8266 12.3915 54.5117 12.3915C51.3943 12.3915 49.1988 14.1494 49.1988 16.6363C49.1988 22.5318 57.168 20.2808 57.168 23.2178C57.168 24.3542 56.1801 24.9544 54.7092 24.9544C53.0846 24.9544 52.0528 23.9897 51.9212 22.4676H48.7598C48.8915 25.6618 51.2186 27.7414 54.7092 27.7414Z" fill="#592814"/>
<path d="M61.2302 31.9428H64.2818V26.6045C64.8745 27.3335 65.9502 27.7408 67.2016 27.7408C70.3848 27.7408 72.5362 25.5326 72.5362 22.1668C72.5362 18.8009 70.5604 16.5928 67.465 16.5928C66.038 16.5928 64.9404 17.1073 64.2818 17.9434V16.7643H61.2302V31.9428ZM66.8283 25.1682C65.1818 25.1682 64.1061 23.9676 64.1061 22.1668C64.1061 20.3445 65.1818 19.1439 66.8283 19.1439C68.431 19.1439 69.5286 20.3445 69.5286 22.1668C69.5286 23.9676 68.431 25.1682 66.8283 25.1682Z" fill="#592814"/>
<path d="M73.2744 27.5714H76.3261V21.6543C76.3261 20.2608 77.27 19.2533 78.6092 19.2533C79.8825 19.2533 80.7607 20.1965 80.7607 21.5042V27.5714H83.8122V20.8397C83.8122 18.3529 82.1876 16.5949 79.7069 16.5949C78.1702 16.5949 76.9627 17.2165 76.3261 18.2671V12.0713H73.2744V27.5714Z" fill="#592814"/>
<path d="M92.3487 23.9033C92.1069 24.8252 91.2948 25.2969 90.0661 25.2969C88.5287 25.2969 87.5409 24.3536 87.3217 22.8314H95.2687C95.2904 22.5956 95.3122 22.2739 95.3122 21.8667C95.3122 19.4012 93.7539 16.5928 89.8461 16.5928C86.0921 16.5928 84.3796 19.4012 84.3796 22.1453C84.3796 24.8681 86.3116 27.7408 90.0661 27.7408C92.7878 27.7408 94.8956 26.2401 95.3348 23.9033H92.3487ZM89.8461 18.7796C91.3174 18.7796 92.173 19.7442 92.2609 20.9448H87.3652C87.6287 19.4441 88.4626 18.7796 89.8461 18.7796Z" fill="#592814"/>
<path d="M103.315 19.2499V16.7631H101.741C100.402 16.7631 99.5678 17.2132 98.9748 18.5639V16.7631H95.9009V27.5681H98.9748V22.3156C98.9748 20.4718 99.6557 19.2499 101.17 19.2499H103.315Z" fill="#592814"/>
<path d="M113.853 16.7631H110.779V22.6801C110.779 24.0522 109.835 25.0812 108.496 25.0812C107.245 25.0812 106.367 24.1379 106.367 22.8301V16.7631H103.315V23.4948C103.315 25.9601 104.939 27.7396 107.42 27.7396C108.936 27.7396 110.164 27.0965 110.779 26.0674V27.5681H113.853V16.7631Z" fill="#592814"/>
<path d="M115.17 27.5714H118.222V12.0713H115.17V27.5714Z" fill="#592814"/>
<path d="M126.934 23.9033C126.692 24.8252 125.88 25.2969 124.651 25.2969C123.114 25.2969 122.126 24.3536 121.907 22.8314H129.853C129.877 22.5956 129.898 22.2739 129.898 21.8667C129.898 19.4012 128.339 16.5928 124.431 16.5928C120.677 16.5928 118.965 19.4012 118.965 22.1453C118.965 24.8681 120.898 27.7408 124.651 27.7408C127.373 27.7408 129.481 26.2401 129.919 23.9033H126.934ZM124.431 18.7796C125.903 18.7796 126.758 19.7442 126.846 20.9448H121.951C122.214 19.4441 123.048 18.7796 124.431 18.7796Z" fill="#592814"/>
</g>
<defs>
<clipPath id="clip0_3233_9102">
<rect width="140" height="40" fill="white" transform="translate(0 0.307129)"/>
</clipPath>
</defs>
</svg>
