<svg
    width="16"
    height="17"
    viewBox="0 0 16 17"
    fill="none"
    xmlns="http://www.w3.org/2000/svg"
  >
    <path
      d="M8 0.75C12.2812 0.75 15.75 4.21875 15.75 8.5C15.75 12.7812 12.2812 16.25 8 16.25C3.71875 16.25 0.25 12.7812 0.25 8.5C0.25 4.21875 3.71875 0.75 8 0.75ZM7.09375 5.25L9.4375 7.5H3.75C3.3125 7.5 3 7.84375 3 8.25V8.75C3 9.1875 3.3125 9.5 3.75 9.5H9.4375L7.09375 11.7812C6.78125 12.0625 6.78125 12.5625 7.0625 12.8438L7.40625 13.1875C7.71875 13.4688 8.1875 13.4688 8.46875 13.1875L12.625 9.03125C12.9062 8.75 12.9062 8.28125 12.625 8L8.46875 3.84375C8.1875 3.53125 7.71875 3.53125 7.40625 3.84375L7.0625 4.1875C6.78125 4.46875 6.78125 4.96875 7.09375 5.25Z"
      fill="#F7BF39"
    />
  </svg>